<?xml version="1.0" encoding="UTF-8" standalone="no"?>
<!-- Uploaded to: SVG Repo, www.svgrepo.com, Generator: SVG Repo Mixer Tools -->

<svg
   fill="#000000"
   height="800px"
   width="800px"
   version="1.1"
   id="Capa_1"
   viewBox="0 0 455.896 455.896"
   xml:space="preserve"
   sodipodi:docname="game-field.svg"
   inkscape:version="1.2 (dc2aedaf03, 2022-05-15)"
   xmlns:inkscape="http://www.inkscape.org/namespaces/inkscape"
   xmlns:sodipodi="http://sodipodi.sourceforge.net/DTD/sodipodi-0.dtd"
   xmlns="http://www.w3.org/2000/svg"
   xmlns:svg="http://www.w3.org/2000/svg"><defs
   id="defs17">
	
	
	
	
	
</defs><sodipodi:namedview
   id="namedview15"
   pagecolor="#ffffff"
   bordercolor="#666666"
   borderopacity="1.0"
   inkscape:showpageshadow="2"
   inkscape:pageopacity="0.0"
   inkscape:pagecheckerboard="0"
   inkscape:deskcolor="#d1d1d1"
   showgrid="false"
   inkscape:zoom="0.35974058"
   inkscape:cx="158.44751"
   inkscape:cy="523.98871"
   inkscape:window-width="1920"
   inkscape:window-height="1001"
   inkscape:window-x="-9"
   inkscape:window-y="-9"
   inkscape:window-maximized="1"
   inkscape:current-layer="Capa_1" />
<path
   d="m 432.458,330.806 c 8.794,0 15.926,-7.132 15.926,-15.926 0,-8.794 -7.132,-15.926 -15.926,-15.926 H 331.599 V 155.62 h 100.859 c 8.794,0 15.926,-7.132 15.926,-15.926 0,-8.794 -7.132,-15.926 -15.926,-15.926 H 331.599 V 22.909 c 0,-8.796 -7.132,-15.926 -15.926,-15.926 -8.796,0 -15.926,7.13 -15.926,15.926 V 123.768 H 156.414 V 22.902 c 0,-8.794 -7.132,-15.926 -15.926,-15.926 -8.796,0 -15.926,7.132 -15.926,15.926 V 123.769 H 23.695 c -8.794,0 -15.926,7.132 -15.926,15.926 0,8.794 7.132,15.926 15.926,15.926 H 124.562 V 298.954 H 23.695 c -8.794,0 -15.926,7.132 -15.926,15.926 0,8.794 7.132,15.926 15.926,15.926 h 100.867 v 100.859 c 0,8.796 7.13,15.926 15.926,15.926 8.794,0 15.926,-7.13 15.926,-15.926 V 330.806 h 143.333 v 100.867 c 0,8.794 7.13,15.926 15.926,15.926 8.794,0 15.926,-7.132 15.926,-15.926 V 330.806 Z M 156.414,298.954 V 155.62 H 299.747 V 298.953 H 156.414 Z"
   id="path2" />
<path
   d="M 32.31798,105.3189 57.556369,80.077819 82.794757,105.3189 c 3.110418,3.11001 7.184967,4.66601 11.261514,4.66601 4.075548,0 8.150099,-1.556 11.261509,-4.66601 6.22284,-6.213025 6.22284,-16.299057 0,-22.519073 L 80.080393,57.556747 105.31678,32.313667 c 6.22284,-6.22102 6.22284,-16.306052 0,-22.5190721 -6.221832,-6.2210199 -16.301185,-6.2210199 -22.522023,0 L 57.556369,35.035675 32.31798,9.7945949 c -6.221835,-6.2210199 -16.301188,-6.2210199 -22.5220234,0 -6.2228355,6.2130201 -6.2228355,16.2990521 0,22.5190721 L 35.032345,57.556747 9.7959566,82.798827 c -6.2228355,6.221016 -6.2228355,16.307048 0,22.519073 3.1104174,3.11001 7.1849644,4.66601 11.2615124,4.66601 4.075547,0.001 8.150094,-1.555 11.260511,-4.66501 z"
   id="X00"
   style="stroke-width:1.00007"
   inkscape:label="#X00" /><path
   d="M 203.56392,105.3189 228.80231,80.077819 254.0407,105.3189 c 3.11041,3.11001 7.18496,4.66601 11.26151,4.66601 4.07555,0 8.1501,-1.556 11.26151,-4.66601 6.22284,-6.21303 6.22284,-16.299057 0,-22.519073 l -25.23739,-25.24308 25.23638,-25.24308 c 6.22285,-6.22102 6.22285,-16.306052 0,-22.519072 -6.22183,-6.22102 -16.30119,-6.22102 -22.52202,0 l -25.23838,25.24108 -25.23839,-25.24108 c -6.22184,-6.22102 -16.30119,-6.22102 -22.52202,0 -6.22284,6.21302 -6.22284,16.299052 0,22.519072 l 25.23638,25.24308 -25.23638,25.24208 c -6.22284,6.221016 -6.22284,16.307043 0,22.519073 3.11041,3.11001 7.18495,4.66601 11.2615,4.66601 4.07554,0.001 8.15009,-1.555 11.26052,-4.66501 z"
   id="X01"
   style="stroke-width:1.00007"
   inkscape:label="#X01" /><path
   d="m 372.53037,105.3189 25.23839,-25.241081 25.23839,25.241081 c 3.11041,3.11001 7.18496,4.66601 11.26151,4.66601 4.07555,0 8.1501,-1.556 11.26151,-4.66601 6.22284,-6.21303 6.22284,-16.299057 0,-22.519073 l -25.23739,-25.24308 25.23638,-25.24308 c 6.22285,-6.22102 6.22285,-16.306052 0,-22.519072 -6.22183,-6.22102 -16.30119,-6.22102 -22.52202,0 l -25.23838,25.24108 -25.23839,-25.24108 c -6.22184,-6.22102 -16.30119,-6.22102 -22.52202,0 -6.22284,6.21302 -6.22284,16.299052 0,22.519072 l 25.23638,25.24308 -25.23638,25.24208 c -6.22284,6.221016 -6.22284,16.307043 0,22.519073 3.11041,3.11001 7.18495,4.66601 11.2615,4.66601 4.07554,0.001 8.15009,-1.555 11.26052,-4.66501 z"
   id="X02"
   style="stroke-width:1.00007"
   inkscape:label="#X02" /><path
   d="m 32.31798,275.06035 25.23839,-25.24108 25.238387,25.24108 c 3.110418,3.11001 7.184967,4.66601 11.261514,4.66601 4.075548,0 8.150099,-1.556 11.261509,-4.66601 6.22284,-6.21303 6.22284,-16.29906 0,-22.51907 L 80.080393,227.2982 105.31678,202.05512 c 6.22284,-6.22102 6.22284,-16.30606 0,-22.51908 -6.221832,-6.22102 -16.301185,-6.22102 -22.522023,0 L 57.55637,204.77712 32.31798,179.53604 c -6.22183,-6.22102 -16.30119,-6.22102 -22.52202,0 -6.22284,6.21302 -6.22284,16.29906 0,22.51908 L 35.03234,227.2982 9.79596,252.54028 c -6.22284,6.22101 -6.22284,16.30704 0,22.51907 3.11041,3.11001 7.18496,4.66601 11.26151,4.66601 4.07555,10e-4 8.15009,-1.555 11.26051,-4.66501 z"
   id="X10"
   style="stroke-width:1.00007"
   inkscape:label="#X10" /><path
   d="m 203.56392,275.06035 25.23839,-25.24108 25.23839,25.24108 c 3.11041,3.11001 7.18496,4.66601 11.26151,4.66601 4.07555,0 8.1501,-1.556 11.26151,-4.66601 6.22284,-6.21303 6.22284,-16.29906 0,-22.51907 l -25.23739,-25.24308 25.23638,-25.24308 c 6.22285,-6.22102 6.22285,-16.30606 0,-22.51908 -6.22183,-6.22102 -16.30119,-6.22102 -22.52202,0 l -25.23838,25.24108 -25.23839,-25.24108 c -6.22184,-6.22102 -16.30119,-6.22102 -22.52202,0 -6.22284,6.21302 -6.22284,16.29906 0,22.51908 l 25.23638,25.24308 -25.23638,25.24208 c -6.22284,6.22101 -6.22284,16.30704 0,22.51907 3.11041,3.11001 7.18495,4.66601 11.2615,4.66601 4.07554,10e-4 8.15009,-1.555 11.26052,-4.66501 z"
   id="X11"
   style="stroke-width:1.00007"
   inkscape:label="#X11" /><path
   d="m 372.53037,275.06035 25.23839,-25.24108 25.23839,25.24108 c 3.11041,3.11001 7.18496,4.66601 11.26151,4.66601 4.07555,0 8.1501,-1.556 11.26151,-4.66601 6.22284,-6.21303 6.22284,-16.29906 0,-22.51907 l -25.23739,-25.24308 25.23638,-25.24308 c 6.22285,-6.22102 6.22285,-16.30606 0,-22.51908 -6.22183,-6.22102 -16.30119,-6.22102 -22.52202,0 l -25.23838,25.24108 -25.23839,-25.24108 c -6.22184,-6.22102 -16.30119,-6.22102 -22.52202,0 -6.22284,6.21302 -6.22284,16.29906 0,22.51908 l 25.23638,25.24308 -25.23638,25.24208 c -6.22284,6.22101 -6.22284,16.30704 0,22.51907 3.11041,3.11001 7.18495,4.66601 11.2615,4.66601 4.07554,10e-4 8.15009,-1.555 11.26052,-4.66501 z"
   id="X12"
   style="stroke-width:1.00007"
   inkscape:label="#X12" /><path
   d="m 32.31798,445.5313 25.23839,-25.24108 25.23839,25.24108 c 3.11041,3.11001 7.18496,4.666 11.26151,4.666 4.07555,0 8.1501,-1.55599 11.26151,-4.66601 6.22284,-6.21303 6.22284,-16.29906 0,-22.51907 l -25.23739,-25.24308 25.23639,-25.24307 c 6.22284,-6.22102 6.22284,-16.30606 0,-22.51908 -6.22183,-6.22102 -16.30119,-6.22102 -22.52202,0 L 57.55637,375.24807 32.31798,350.00698 c -6.22183,-6.22102 -16.30119,-6.22102 -22.52202,0 -6.22284,6.21302 -6.22284,16.29906 0,22.51908 l 25.23638,25.24308 -25.23638,25.24208 c -6.22284,6.22101 -6.22284,16.30704 0,22.51907 3.11041,3.11001 7.18496,4.66602 11.26151,4.66602 4.07555,9.9e-4 8.15009,-1.555 11.26051,-4.66501 z"
   id="path112-6-3"
   style="stroke-width:1.00007" /><path
   d="m 203.56392,445.5313 25.23839,-25.24108 25.23839,25.24108 c 3.11041,3.11001 7.18496,4.666 11.26151,4.666 4.07555,0 8.1501,-1.55599 11.26151,-4.66601 6.22284,-6.21303 6.22284,-16.29906 0,-22.51907 l -25.23739,-25.24308 25.23638,-25.24308 c 6.22285,-6.22102 6.22285,-16.30606 0,-22.51908 -6.22183,-6.22102 -16.30119,-6.22102 -22.52202,0 l -25.23838,25.24108 -25.23839,-25.24108 c -6.22184,-6.22102 -16.30119,-6.22102 -22.52202,0 -6.22284,6.21302 -6.22284,16.29906 0,22.51908 l 25.23638,25.24308 -25.23638,25.24208 c -6.22284,6.22101 -6.22284,16.30704 0,22.51907 3.11041,3.11001 7.18495,4.66601 11.2615,4.66601 4.07554,10e-4 8.15009,-1.555 11.26052,-4.665 z"
   id="X21"
   style="stroke-width:1.00007"
   inkscape:label="#X21" /><path
   d="m 372.53037,445.5313 25.23839,-25.24108 25.23839,25.24108 c 3.11041,3.11001 7.18496,4.666 11.26151,4.666 4.07555,0 8.1501,-1.55599 11.26151,-4.66601 6.22284,-6.21303 6.22284,-16.29906 0,-22.51907 l -25.23739,-25.24308 25.23638,-25.24307 c 6.22285,-6.22102 6.22285,-16.30606 0,-22.51908 -6.22183,-6.22102 -16.30119,-6.22102 -22.52202,0 l -25.23838,25.24108 -25.23839,-25.24108 c -6.22184,-6.22102 -16.30119,-6.22102 -22.52202,0 -6.22284,6.21302 -6.22284,16.29906 0,22.51908 l 25.23638,25.24308 -25.23638,25.24208 c -6.22284,6.22101 -6.22284,16.30704 0,22.51907 3.11041,3.11001 7.18495,4.66601 11.2615,4.66601 4.07554,9.9e-4 8.15009,-1.555 11.26052,-4.66501 z"
   id="X22"
   style="stroke-width:1.00007"
   inkscape:label="#X22" /><path
   d="m 57.556871,109.98491 c 28.91107,0 52.428039,-23.51697 52.428039,-52.428038 C 109.98491,28.6458 86.467941,5.12883 57.556871,5.12883 28.6458,5.12883 5.12883,28.6458 5.12883,57.556872 c 0,28.910175 23.517863,52.428038 52.428041,52.428038 z m 0,-76.424343 c 13.230413,0 23.996304,10.765889 23.996304,23.996305 0,13.230412 -10.765891,23.996299 -23.996304,23.996299 -13.230414,0 -23.996305,-10.765887 -23.996305,-23.996299 0,-13.230416 10.765891,-23.996305 23.996305,-23.996305 z"
   id="O00"
   style="stroke-width:0.89262"
   inkscape:label="#O00" /><path
   d="m 228.8028,109.98491 c 28.91108,0 52.42805,-23.516968 52.42805,-52.428038 0,-28.911071 -23.51697,-52.428042 -52.42805,-52.428042 -28.91107,0 -52.42804,23.516971 -52.42804,52.428042 0,28.910178 23.51786,52.428038 52.42804,52.428038 z m 0,-76.424343 c 13.23042,0 23.99631,10.765891 23.99631,23.996305 0,13.230414 -10.76589,23.996304 -23.99631,23.996304 -13.23041,0 -23.99631,-10.76589 -23.99631,-23.996304 0,-13.230414 10.7659,-23.996305 23.99631,-23.996305 z"
   id="O01"
   style="stroke-width:0.89262"
   inkscape:label="#O01" /><path
   d="m 397.76926,109.98491 c 28.91107,0 52.42804,-23.516968 52.42804,-52.42804 0,-28.91107 -23.51697,-52.42804 -52.42804,-52.42804 -28.91107,0 -52.42804,23.51697 -52.42804,52.42804 0,28.910179 23.51786,52.42804 52.42804,52.42804 z m 0,-76.424345 c 13.23041,0 23.99631,10.76589 23.99631,23.996305 0,13.230415 -10.7659,23.996305 -23.99631,23.996305 -13.23041,0 -23.99631,-10.76589 -23.99631,-23.996305 0,-13.230415 10.7659,-23.996305 23.99631,-23.996305 z"
   id="O02"
   style="stroke-width:0.89262"
   inkscape:label="#O02" /><path
   d="m 57.55687,279.72639 c 28.911072,0 52.42804,-23.51697 52.42804,-52.42804 0,-28.91107 -23.516968,-52.42804 -52.42804,-52.42804 -28.91107,0 -52.42804,23.51697 -52.42804,52.42804 0,28.91018 23.51786,52.42804 52.42804,52.42804 z m 0,-76.42435 c 13.230415,0 23.996305,10.7659 23.996305,23.99631 0,13.23041 -10.76589,23.99631 -23.996305,23.99631 -13.23041,0 -23.99631,-10.7659 -23.99631,-23.99631 0,-13.23041 10.7659,-23.99631 23.99631,-23.99631 z"
   id="O10"
   style="stroke-width:0.89262"
   inkscape:label="#O10" /><path
   d="m 228.8028,279.72639 c 28.91108,0 52.42805,-23.51697 52.42805,-52.42804 0,-28.91107 -23.51697,-52.42804 -52.42805,-52.42804 -28.91107,0 -52.42804,23.51697 -52.42804,52.42804 0,28.91018 23.51786,52.42804 52.42804,52.42804 z m 0,-76.42435 c 13.23042,0 23.99631,10.7659 23.99631,23.99631 0,13.23041 -10.76589,23.99631 -23.99631,23.99631 -13.23041,0 -23.99631,-10.7659 -23.99631,-23.99631 0,-13.23041 10.7659,-23.99631 23.99631,-23.99631 z"
   id="O11"
   style="stroke-width:0.89262"
   inkscape:label="#O11" /><path
   d="m 397.76926,279.78338 c 28.91107,0 52.42804,-23.51697 52.42804,-52.42804 0,-28.91107 -23.51697,-52.42804 -52.42804,-52.42804 -28.91107,0 -52.42804,23.51697 -52.42804,52.42804 0,28.91018 23.51786,52.42804 52.42804,52.42804 z m 0,-76.42435 c 13.23041,0 23.9963,10.7659 23.9963,23.99631 0,13.23041 -10.76589,23.99631 -23.9963,23.99631 -13.23042,0 -23.99631,-10.7659 -23.99631,-23.99631 0,-13.23041 10.76589,-23.99631 23.99631,-23.99631 z"
   id="O12"
   style="stroke-width:0.89262"
   inkscape:label="#O12" /><path
   d="m 57.55687,450.1973 c 28.911072,0 52.42804,-23.51697 52.42804,-52.42804 0,-28.91107 -23.516968,-52.42804 -52.42804,-52.42804 -28.91107,0 -52.42804,23.51697 -52.42804,52.42804 0,28.91018 23.51786,52.42804 52.42804,52.42804 z m 0,-76.42435 c 13.230415,0 23.996306,10.7659 23.996306,23.99631 0,13.23041 -10.765891,23.99631 -23.996306,23.99631 -13.230414,0 -23.99631,-10.7659 -23.99631,-23.99631 0,-13.23041 10.765896,-23.99631 23.99631,-23.99631 z"
   id="O20"
   style="stroke-width:0.89262"
   inkscape:label="#O20" /><path
   d="m 228.8028,450.1973 c 28.91107,0 52.42804,-23.51697 52.42804,-52.42804 0,-28.91107 -23.51697,-52.42804 -52.42804,-52.42804 -28.91107,0 -52.42804,23.51697 -52.42804,52.42804 0,28.91018 23.51786,52.42804 52.42804,52.42804 z m 0,-76.42435 c 13.23041,0 23.99631,10.7659 23.99631,23.99631 0,13.23041 -10.7659,23.99631 -23.99631,23.99631 -13.23042,0 -23.99631,-10.7659 -23.99631,-23.99631 0,-13.23041 10.76589,-23.99631 23.99631,-23.99631 z"
   id="O21"
   style="stroke-width:0.89262"
   inkscape:label="#O21" /><path
   d="m 397.76926,450.1973 c 28.91107,0 52.42804,-23.51697 52.42804,-52.42804 0,-28.91107 -23.51697,-52.42804 -52.42804,-52.42804 -28.91107,0 -52.42804,23.51697 -52.42804,52.42804 0,28.91018 23.51786,52.42804 52.42804,52.42804 z m 0,-76.42435 c 13.23041,0 23.9963,10.7659 23.9963,23.99631 0,13.23041 -10.76589,23.99631 -23.9963,23.99631 -13.23041,0 -23.99631,-10.7659 -23.99631,-23.99631 0,-13.23041 10.7659,-23.99631 23.99631,-23.99631 z"
   id="O22"
   style="stroke-width:0.89262"
   inkscape:label="#O22" /><rect
   style="fill:#ffffff;fill-opacity:1;stroke-width:0.614752"
   id="rect00"
   width="123.33714"
   height="121.71163"
   x="0"
   y="0"
   inkscape:label="#rect00" /><rect
   style="fill:#ffffff;fill-opacity:1;stroke-width:0.619236"
   id="rect20"
   width="123.33714"
   height="123.49376"
   x="0"
   y="332.16168"
   inkscape:label="#rect20" /><rect
   style="fill:#ffffff;fill-opacity:1;stroke-width:0.661018"
   id="rect10"
   width="123.33714"
   height="140.72099"
   x="0"
   y="156.95984"
   inkscape:label="#rect10" /><rect
   style="fill:#ffffff;fill-opacity:1;stroke-width:0.614752"
   id="rect02"
   width="123.33714"
   height="121.71163"
   x="332.51913"
   y="0"
   inkscape:label="#rect02" /><rect
   style="fill:#ffffff;fill-opacity:1;stroke-width:0.614752"
   id="rect22"
   width="123.33714"
   height="121.71163"
   x="332.51913"
   y="333.9364"
   inkscape:label="#rect22" /><rect
   style="fill:#ffffff;fill-opacity:1;stroke-width:0.661018"
   id="rect12"
   width="123.33714"
   height="140.72099"
   x="332.51913"
   y="156.95982"
   inkscape:label="#rect12" /><rect
   style="fill:#ffffff;fill-opacity:1;stroke-width:0.654894"
   id="rect01"
   width="139.97034"
   height="121.71163"
   x="158.13379"
   y="0"
   inkscape:label="#rect01" /><rect
   style="fill:#ffffff;fill-opacity:1;stroke-width:0.654894"
   id="rect21"
   width="139.97034"
   height="121.71163"
   x="158.13379"
   y="333.75186"
   inkscape:label="#rect21" /><rect
   style="fill:#ffffff;fill-opacity:1;stroke-width:0.706171"
   id="rect11"
   width="140.76239"
   height="140.72099"
   x="157.73119"
   y="156.5638"
   inkscape:label="#rect11" /></svg>
